<svg width="32" height="32" viewBox="0 0 32 32" fill="none" xmlns="http://www.w3.org/2000/svg">
<rect width="32" height="32" rx="3" fill="#18181B"/>
<path d="M13.524 3.24541C15.3577 3.24179 17.1914 3.24874 19.0251 3.24125C20.0897 3.23756 21.097 3.49226 21.8894 4.24217C22.8168 5.22136 25.0868 8.91903 22.9156 9.73995C21.8789 10.0117 20.6446 9.82846 19.5857 9.83647C18.5217 9.84385 18.5217 9.84385 18.097 9.48832C17.5586 8.88346 17.3831 8.33606 16.474 8.33462C15.7853 8.33148 15.026 8.26136 14.4567 8.72317C14.0201 9.16908 13.8168 9.86033 13.5855 10.4255C12.4522 13.1913 11.2824 15.9439 10.1104 18.6936C9.9631 19.042 9.83688 19.3962 9.73474 19.7603C9.47915 20.9033 10.5171 22.6064 11.5074 23.2229C11.8505 23.2586 12.1472 23.1286 12.4127 22.9169C13.5006 21.9793 14.5178 21.0893 16.0597 21.1177C17.2519 21.153 18.1423 21.7705 18.983 22.5623C19.2691 22.8301 19.6356 23.1678 20.0463 23.1886C21.1594 23.0622 22.0775 20.9994 21.9811 20.0756C21.8466 19.3455 21.1793 18.1256 20.4821 17.8681C19.3577 17.5336 16.3211 20.2618 16.1407 17.7442C15.6649 17.7672 15.2025 17.6146 14.8559 17.278C14.6023 16.9634 14.4716 16.6167 14.4816 16.2106C14.6 15.53 15.04 14.8638 15.3036 14.2278C15.927 12.7241 15.927 12.7241 16.5374 12.4623C16.7919 12.362 17.0316 12.3375 17.3036 12.3373C18.6539 12.3298 20.0042 12.3319 21.3546 12.3259C22.633 12.3205 24.6307 12.0144 25.6313 12.9358C25.9247 13.256 26.1048 13.649 26.2811 14.0408C26.8556 15.3001 27.4663 16.5509 28.0952 17.7841C29.7249 20.9949 27.3229 25.0126 25.1172 27.4064C24.4129 28.1571 23.1535 28.7437 22.1079 28.7456C18.3327 28.7611 14.5574 28.7428 10.7821 28.7594C9.21452 28.7669 7.95553 28.3811 6.79377 27.276C6.28866 26.7554 5.95089 26.099 5.58918 25.4765C4.50437 23.6134 3.08896 21.7236 3.4161 19.449C3.49422 18.8783 3.69734 18.336 3.93769 17.8151C5.57346 14.2703 7.06942 10.6201 8.58474 7.02048C9.21939 5.51019 9.91435 4.22788 11.4998 3.5575C12.1609 3.29095 12.8202 3.24514 13.524 3.24541Z" fill="#55CE98"/>
</svg>
